<?xml version="1.0" encoding="utf-8"?>
<!-- Generator: Adobe Illustrator 16.0.0, SVG Export Plug-In . SVG Version: 6.00 Build 0)  -->
<!DOCTYPE svg PUBLIC "-//W3C//DTD SVG 1.1//EN" "http://www.w3.org/Graphics/SVG/1.1/DTD/svg11.dtd">
<svg version="1.1" id="Layer_1" xmlns="http://www.w3.org/2000/svg" xmlns:xlink="http://www.w3.org/1999/xlink" x="0px" y="0px"
	 width="40.6px" height="43.9px" viewBox="0 0 40.6 43.9" enable-background="new 0 0 40.6 43.9" xml:space="preserve">
	 <style>
svg{
  stroke-width: 0.5px;
}
/* line 56, ../sass/about.scss */
path#cloudFront {
  -webkit-animation: 0.8s cloudMove linear infinite alternate;
  -moz-animation: 0.8s cloudMove linear infinite alternate;
  -o-animation: 0.8s cloudMove linear infinite alternate;
  animation: 0.8s cloudMove linear infinite alternate;
}

@-webkit-keyframes cloudMove {
  /* line 63, ../sass/about.scss */
  0% {
    -webkit-transform: translateX(-20%);
    -moz-transform: translateX(-20%);
    -o-transform: translateX(-20%);
    transform: translateX(-20%);
  }

  /* line 65, ../sass/about.scss */
  100% {
    -webkit-transform: translateX(20%);
    -moz-transform: translateX(20%);
    -o-transform: translateX(20%);
    transform: translateX(20%);
  }
}



@-o-keyframes cloudMove {
  /* line 63, ../sass/about.scss */
  0% {
    -webkit-transform: translateX(-20%);
    -moz-transform: translateX(-20%);
    -o-transform: translateX(-20%);
    transform: translateX(-20%);
  }

  /* line 65, ../sass/about.scss */
  100% {
    -webkit-transform: translateX(20%);
    -moz-transform: translateX(20%);
    -o-transform: translateX(20%);
    transform: translateX(20%);
  }
}

@keyframes cloudMove {
  /* line 63, ../sass/about.scss */
  0% {
    -webkit-transform: translateX(-20%);
    -moz-transform: translateX(-20%);
    -o-transform: translateX(-20%);
    transform: translateX(-20%);
  }

  /* line 65, ../sass/about.scss */
  100% {
    -webkit-transform: translateX(20%);
    -moz-transform: translateX(20%);
    -o-transform: translateX(20%);
    transform: translateX(20%);
  }
}


@-moz-keyframes cloudMove {
  /* line 63, ../sass/about.scss */
  0% {
    -webkit-transform: translateX(-0.2em);
    -moz-transform: translateX(-0.2em);
    -o-transform: translateX(-0.2em);
    transform: translateX(-0.2em);
  }

  /* line 65, ../sass/about.scss */
  100% {
    -webkit-transform: translateX(0.2em);
    -moz-transform: translateX(0.2em);
    -o-transform: translateX(0.2em);
    transform: translateX(0.2em);
  }
}
	 </style>
<linearGradient id="cloudBack_1_" gradientUnits="userSpaceOnUse" x1="-307.7791" y1="577.8582" x2="-307.7791" y2="564.8572" gradientTransform="matrix(1 0 0 1 328.0801 -550.4199)">
	<stop  offset="0" style="stop-color:#FA7A2C"/>
	<stop  offset="1" style="stop-color:#FFCC33"/>
</linearGradient>
<path id="cloudBack" fill="none" stroke="url(#cloudBack_1_)" stroke-linecap="round" stroke-linejoin="round" stroke-miterlimit="10" d="
	M31.976,23.829c-0.29,0-0.58,0.074-0.797,0.146c0.074-0.218,0.074-0.434,0.074-0.649c0-2.026-1.592-3.616-3.615-3.616
	c-0.146-2.675-2.388-4.773-5.06-4.773c-2.388,0-4.412,1.591-4.918,3.904c-0.723-0.435-1.518-0.651-2.457-0.651
	c-2.675,0-4.843,2.169-4.843,4.844c0,0.072,0,0.072,0,0.146c-0.217-0.073-0.434-0.073-0.651-0.073c-2.096,0-3.758,1.664-3.758,3.76
	c0,0.073,0,0.073,0,0.073h28.7c0-0.073,0-0.218,0-0.288C34.651,24.987,33.421,23.829,31.976,23.829z"/>
<linearGradient id="cloudFront_1_" gradientUnits="userSpaceOnUse" x1="-307.6721" y1="579.8816" x2="-307.6721" y2="573.1726" gradientTransform="matrix(1 0 0 1 328.0801 -550.4199)">
	<stop  offset="0" style="stop-color:#FA7A2C"/>
	<stop  offset="1" style="stop-color:#FFCC33"/>
</linearGradient>
<path id="cloudFront" fill="#FFFFFF" stroke="url(#cloudFront_1_)" stroke-linecap="round" stroke-linejoin="round" stroke-miterlimit="10" d="
	M25.324,26.794c-0.217,0-0.361,0.072-0.506,0.072c-0.072-1.446-1.302-2.602-2.748-2.602c-0.361,0-0.649,0.072-0.938,0.215
	c-0.507-0.794-1.374-1.228-2.314-1.228c-1.59,0-2.892,1.3-2.892,2.892c0,0.072,0,0.072,0,0.144c-0.145-0.071-0.29-0.071-0.506-0.071
	c-1.157,0-2.097,0.939-2.097,2.094c0,0.218,0.073,0.507,0.145,0.651h14.024C27.492,27.733,26.554,26.794,25.324,26.794z"/>
</svg>
