<?xml version="1.0" encoding="utf-8"?>
<!-- Generator: Adobe Illustrator 16.0.0, SVG Export Plug-In . SVG Version: 6.00 Build 0)  -->
<!DOCTYPE svg PUBLIC "-//W3C//DTD SVG 1.1//EN" "http://www.w3.org/Graphics/SVG/1.1/DTD/svg11.dtd">
<svg version="1.1" id="Layer_1" xmlns="http://www.w3.org/2000/svg" xmlns:xlink="http://www.w3.org/1999/xlink" x="0px" y="0px"
	 width="40.6px" height="43.9px" viewBox="0 0 40.6 43.9" enable-background="new 0 0 40.6 43.9" xml:space="preserve">
	 <style>
	 	svg{
	 	stroke-width: 0.5px;
	 	}
	 </style>
<g>
	
		<linearGradient id="SVGID_1_" gradientUnits="userSpaceOnUse" x1="-307.6145" y1="566.6062" x2="-307.6145" y2="562.5134" gradientTransform="matrix(1 0 0 1 328.0801 -550.4199)">
		<stop  offset="0.1" style="stop-color:#FA7A2C"/>
		<stop  offset="0.9" style="stop-color:#FFCC33"/>
	</linearGradient>
	
		<circle fill="none" stroke="url(#SVGID_1_)" stroke-linecap="round" stroke-linejoin="round" stroke-miterlimit="10" cx="20.5" cy="14.1" r="1.5"/>
	
		<linearGradient id="SVGID_2_" gradientUnits="userSpaceOnUse" x1="-300.22" y1="582.1453" x2="-300.22" y2="572.4402" gradientTransform="matrix(1 0 0 1 328.0801 -550.4199)">
		<stop  offset="0.1" style="stop-color:#FA7A2C"/>
		<stop  offset="0.9" style="stop-color:#FFCC33"/>
	</linearGradient>
	<path fill="none" stroke="url(#SVGID_2_)" stroke-linecap="round" stroke-linejoin="round" stroke-miterlimit="10" d="M29.3,24.4
		C29,23.7,28,23.2,27,22.5c-0.2,1.1-0.6,2.4-1.1,3.6c0.7,0.2,1.5,0.7,1.7,0.9c0.6,0.6,1.3,3.1,1.5,4c0,0.2,0.2,0.2,0.3,0.2l0,0
		c0.2,0,0.2-0.2,0.2-0.2C29.7,30.5,30.1,25.9,29.3,24.4z"/>
	
		<linearGradient id="SVGID_3_" gradientUnits="userSpaceOnUse" x1="-315.2141" y1="582.1472" x2="-315.2141" y2="572.2781" gradientTransform="matrix(1 0 0 1 328.0801 -550.4199)">
		<stop  offset="0.1" style="stop-color:#FA7A2C"/>
		<stop  offset="0.9" style="stop-color:#FFCC33"/>
	</linearGradient>
	<path fill="none" stroke="url(#SVGID_3_)" stroke-linecap="round" stroke-linejoin="round" stroke-miterlimit="10" d="M11.4,24.4
		c-0.8,1.5-0.5,6-0.5,6.6c0,0.2,0.2,0.2,0.2,0.2l0,0c0.2,0,0.2-0.1,0.3-0.2c0.2-0.9,0.9-3.3,1.5-4c0.2-0.2,1.1-0.7,2-1
		c-0.5-1.3-0.8-2.4-1-3.7C12.9,23,11.8,23.8,11.4,24.4z"/>
	
		<linearGradient id="SVGID_4_" gradientUnits="userSpaceOnUse" x1="-307.6497" y1="581.0867" x2="-307.6497" y2="554.7058" gradientTransform="matrix(1 0 0 1 328.0801 -550.4199)">
		<stop  offset="0.1" style="stop-color:#FA7A2C"/>
		<stop  offset="0.9" style="stop-color:#FFCC33"/>
	</linearGradient>
	<path fill="none" stroke="url(#SVGID_4_)" stroke-linecap="round" stroke-linejoin="round" stroke-miterlimit="10" d="M25.8,11.9
		c-0.6-1.1-1.1-2.4-2-3.6c-0.9-1.1-1.8-2.4-3.3-3.6C19,5.9,18,7.2,17.1,8.4c-0.8,1.1-1.5,2.4-2,3.6c-1,2.4-1.5,4.9-1.5,7.2
		c0,1.1,0.1,2.2,0.2,3.3c0.2,1.2,0.6,2.4,1,3.7c0,0.1,0.1,0.2,0.1,0.3c0.6,1.2,1.2,2.5,2.2,3.7h6.3c0.9-1.3,1.6-2.5,2.2-3.7
		c0-0.1,0.1-0.2,0.1-0.2c0.5-1.1,0.8-2.4,1.1-3.6c0.2-1.1,0.2-2.3,0.2-3.4C27.2,16.7,26.8,14.4,25.8,11.9z"/>
	
		<linearGradient id="SVGID_5_" gradientUnits="userSpaceOnUse" x1="-307.2893" y1="559.2029" x2="-307.2893" y2="558.2029" gradientTransform="matrix(1 0 0 1 328.0801 -550.4199)">
		<stop  offset="0.1" style="stop-color:#FA7A2C"/>
		<stop  offset="0.9" style="stop-color:#FFCC33"/>
	</linearGradient>
	
		<line fill="none" stroke="url(#SVGID_5_)" stroke-linecap="round" stroke-linejoin="round" stroke-miterlimit="10" x1="17.8" y1="8.3" x2="23.8" y2="8.3"/>
</g>
<linearGradient id="rocketLine1_1_" gradientUnits="userSpaceOnUse" x1="-310.3005" y1="587.7605" x2="-310.3005" y2="582.6121" gradientTransform="matrix(1 0 0 1 328.0801 -550.4199)">
	<stop  offset="0.1" style="stop-color:#FA7A2C"/>
	<stop  offset="0.9" style="stop-color:#FFCC33"/>
</linearGradient>
<line id="rocketLine1" fill="none" stroke="url(#rocketLine1_1_)" stroke-linecap="round" stroke-linejoin="round" stroke-miterlimit="10" x1="17.8" y1="32.7" x2="17.8" y2="36.8">
<animate  fill="remove" attributeName="y2" accumulate="none" dur="0.5s" additive="replace" restart="always" calcMode="linear" values="38.8;33.8;38.8" repeatCount="indefinite">
	</animate>
</line>
<linearGradient id="rocketLine2_1_" gradientUnits="userSpaceOnUse" x1="-307.615" y1="590.0378" x2="-307.615" y2="582.6121" gradientTransform="matrix(1 0 0 1 328.0801 -550.4199)">
	<stop  offset="0.1" style="stop-color:#FA7A2C"/>
	<stop  offset="0.9" style="stop-color:#FFCC33"/>
</linearGradient>
<line id="rocketLine2" fill="none" stroke="url(#rocketLine2_1_)" stroke-linecap="round" stroke-linejoin="round" stroke-miterlimit="10" x1="20.5" y1="32.7" x2="20.5" y2="39.1">
<animate  fill="remove" attributeName="y2" accumulate="none" dur="0.5s" additive="replace" restart="always" calcMode="linear" values="42.05;37.05;42.05" repeatCount="indefinite">
	</animate>
</line>
<linearGradient id="rocketLine3_1_" gradientUnits="userSpaceOnUse" x1="-304.9299" y1="587.7605" x2="-304.9299" y2="582.6121" gradientTransform="matrix(1 0 0 1 328.0801 -550.4199)">
	<stop  offset="0.1" style="stop-color:#FA7A2C"/>
	<stop  offset="0.9" style="stop-color:#FFCC33"/>
</linearGradient>
<line id="rocketLine3" fill="none" stroke="url(#rocketLine3_1_)" stroke-linecap="round" stroke-linejoin="round" stroke-miterlimit="10" x1="23.1" y1="32.7" x2="23.1" y2="36.8">
<animate  fill="remove" attributeName="y2" accumulate="none" dur="0.5s" additive="replace" restart="always" calcMode="linear" values="38.8;33.8;38.8" repeatCount="indefinite">
	</animate>
</line>
</svg>
