<?xml version="1.0" encoding="utf-8"?>
<!-- Generator: Adobe Illustrator 16.0.0, SVG Export Plug-In . SVG Version: 6.00 Build 0)  -->
<!DOCTYPE svg PUBLIC "-//W3C//DTD SVG 1.1//EN" "http://www.w3.org/Graphics/SVG/1.1/DTD/svg11.dtd">
<svg version="1.1" id="Layer_1" xmlns="http://www.w3.org/2000/svg" xmlns:xlink="http://www.w3.org/1999/xlink" x="0px" y="0px"
	 width="42.1px" height="92.1px" viewBox="0 0 42.1 92.1" enable-background="new 0 0 42.1 92.1" xml:space="preserve">
<g>
	<path fill="#D324A1" d="M6.3,26.701L0.1,46.901c-0.5,1.601,0.399,3.301,2,3.7c1.6,0.5,3.3-0.5,3.699-2.1l4.9-17.5
		c0.1-0.4,0.5-0.601,0.9-0.5c0.399,0.1,0.6,0.5,0.5,0.899l-8.9,32h8.5v24.4c0,2.4,1.9,4.3,4.3,4.3c2.4,0,4.3-1.899,4.3-4.3v-24.4
		h1.5v24.4c0,2.4,1.9,4.3,4.301,4.3c2.399,0,4.3-1.899,4.3-4.3v-24.4h8.5l-8.9-32c-0.1-0.399,0.101-0.8,0.5-0.899
		c0.4-0.101,0.8,0.1,0.9,0.5l4.899,17.5c0.4,1.6,2.101,2.5,3.7,2.1c1.601-0.5,2.5-2.1,2-3.7l-6.3-20.199c-1.3-4.101-5.8-7.4-10-7.4
		h-9.3C12,19.301,7.6,22.601,6.3,26.701z"/>
	<path fill="#D324A1" d="M13.2,7.701c0,4.3,3.5,7.699,7.7,7.699c4.3,0,7.701-3.5,7.701-7.699c0-4.301-3.5-7.7-7.701-7.7
		C16.7-0.099,13.2,3.401,13.2,7.701z"/>
</g>
</svg>
