<?xml version="1.0" encoding="utf-8"?>
<!-- Generator: Adobe Illustrator 16.0.0, SVG Export Plug-In . SVG Version: 6.00 Build 0)  -->
<!DOCTYPE svg PUBLIC "-//W3C//DTD SVG 1.1//EN" "http://www.w3.org/Graphics/SVG/1.1/DTD/svg11.dtd">
<svg version="1.1" id="Layer_1" xmlns="http://www.w3.org/2000/svg" xmlns:xlink="http://www.w3.org/1999/xlink" x="0px" y="0px"
	 width="42.1px" height="92.1px" viewBox="0 0 42.1 92.1" enable-background="new 0 0 42.1 92.1" xml:space="preserve">
<g>
	<path fill="#00B2B2" d="M13.05,7.701c0,4.3,3.5,7.699,7.7,7.699c4.3,0,7.7-3.5,7.7-7.699c0-4.301-3.5-7.7-7.7-7.7
		C16.55-0.099,13.05,3.401,13.05,7.701z"/>
	<path fill="#00B2B2" d="M11.55,19.301c-4.3,0-7.7,3.5-7.7,7.7v24c0,1.7,1.4,3.1,3.101,3.1c1.699,0,3.1-1.399,3.1-3.1v-19.3
		c0-0.4,0.3-0.801,0.8-0.801c0.4,0,0.8,0.301,0.8,0.801v56.1c0,2.4,1.9,4.3,4.301,4.3c2.399,0,4.3-1.899,4.3-4.3v-32.1
		c0-0.4,0.3-0.801,0.8-0.801c0.4,0,0.8,0.301,0.8,0.801v32.1c0,2.4,1.9,4.3,4.3,4.3c2.4,0,4.301-1.899,4.301-4.3v-56.1
		c0-0.4,0.3-0.801,0.8-0.801s0.8,0.301,0.8,0.801v19.3c0,1.7,1.4,3.1,3.1,3.1c1.7,0,3.101-1.399,3.101-3.1v-24
		c0-4.3-3.5-7.7-7.7-7.7H11.55z"/>
</g>
</svg>
